<svg width="212" height="40" viewBox="0 0 212 40" fill="none" xmlns="http://www.w3.org/2000/svg">
<path d="M26.921 9.065C27.577 9.065 28.1237 9.311 28.561 9.803C29.0257 10.2677 29.258 10.869 29.258 11.607C29.258 11.853 29.2033 12.1673 29.094 12.55L22.821 29.442C22.657 29.934 22.3563 30.3303 21.919 30.631C21.509 30.9043 21.058 31.041 20.566 31.041L20.238 31C19.3087 30.9453 18.6117 30.426 18.147 29.442L14.662 19.356L11.341 29.442C10.8763 30.426 10.1793 30.9453 9.25 31L8.922 31.041C8.43 31.041 7.96533 30.9043 7.528 30.631C7.118 30.3303 6.831 29.934 6.667 29.442L0.394 12.55C0.284667 12.2493 0.23 11.935 0.23 11.607C0.23 10.9237 0.448667 10.336 0.886 9.844C1.35067 9.32467 1.952 9.065 2.69 9.065C3.23667 9.065 3.70133 9.20167 4.084 9.475C4.494 9.721 4.781 10.1037 4.945 10.623L9.373 22.636L12.612 13.862C13.0493 12.8507 13.801 12.345 14.867 12.345C15.441 12.345 15.8783 12.468 16.179 12.714C16.507 12.96 16.7803 13.3427 16.999 13.862L20.156 22.431L24.543 10.623C24.707 10.1037 24.994 9.721 25.404 9.475C25.814 9.20167 26.3197 9.065 26.921 9.065ZM51.0489 8.655C51.7595 8.655 52.3472 8.88733 52.8119 9.352C53.2765 9.81667 53.5089 10.418 53.5089 11.156V28.499C53.5089 29.2097 53.2765 29.811 52.8119 30.303C52.3472 30.7677 51.7595 31 51.0489 31C50.3382 31 49.7505 30.7677 49.2859 30.303C48.8485 29.8383 48.6162 29.2507 48.5889 28.54C47.9055 29.3327 46.9762 30.016 45.8009 30.59C44.6529 31.1367 43.4365 31.41 42.1519 31.41C40.2659 31.41 38.5575 30.9317 37.0269 29.975C35.4962 28.991 34.2799 27.638 33.3779 25.916C32.5032 24.194 32.0659 22.2397 32.0659 20.053C32.0659 17.8663 32.5032 15.912 33.3779 14.19C34.2525 12.4407 35.4415 11.0877 36.9449 10.131C38.4755 9.147 40.1565 8.655 41.9879 8.655C43.2999 8.655 44.5299 8.901 45.6779 9.393C46.8259 9.85767 47.7962 10.459 48.5889 11.197V11.156C48.5889 10.4453 48.8212 9.85767 49.2859 9.393C49.7505 8.901 50.3382 8.655 51.0489 8.655ZM42.7669 26.9C44.5435 26.9 45.9922 26.2577 47.1129 24.973C48.2335 23.661 48.7939 22.021 48.7939 20.053C48.7939 18.085 48.2335 16.445 47.1129 15.133C45.9922 13.821 44.5435 13.165 42.7669 13.165C41.0175 13.165 39.5825 13.821 38.4619 15.133C37.3412 16.445 36.7809 18.085 36.7809 20.053C36.7809 22.021 37.3275 23.661 38.4209 24.973C39.5415 26.2577 40.9902 26.9 42.7669 26.9ZM70.2388 8.655C71.0588 8.655 71.7421 8.88733 72.2888 9.352C72.8628 9.81667 73.1498 10.3633 73.1498 10.992C73.1498 11.8393 72.9311 12.4817 72.4938 12.919C72.0564 13.329 71.5371 13.534 70.9358 13.534C70.5258 13.534 70.0611 13.4383 69.5418 13.247C69.4598 13.2197 69.2684 13.165 68.9678 13.083C68.6944 13.001 68.3938 12.96 68.0658 12.96C67.3551 12.96 66.6718 13.1787 66.0158 13.616C65.3598 14.0533 64.8131 14.723 64.3758 15.625C63.9658 16.4997 63.7608 17.552 63.7608 18.782V28.499C63.7608 29.2097 63.5284 29.811 63.0638 30.303C62.5991 30.7677 62.0114 31 61.3008 31C60.5901 31 60.0024 30.7677 59.5378 30.303C59.0731 29.811 58.8408 29.2097 58.8408 28.499V11.566C58.8408 10.8553 59.0731 10.2677 59.5378 9.803C60.0024 9.311 60.5901 9.065 61.3008 9.065C62.0114 9.065 62.5991 9.311 63.0638 9.803C63.5284 10.2677 63.7608 10.8553 63.7608 11.566V12.099C64.3894 10.9783 65.2914 10.131 66.4668 9.557C67.6421 8.95567 68.8994 8.655 70.2388 8.655ZM93.4502 0.66C94.1609 0.66 94.7486 0.892332 95.2132 1.357C95.6779 1.82167 95.9102 2.423 95.9102 3.161V28.499C95.9102 29.2097 95.6779 29.811 95.2132 30.303C94.7486 30.7677 94.1609 31 93.4502 31C92.7396 31 92.1519 30.7677 91.6872 30.303C91.2499 29.8383 91.0176 29.2507 90.9902 28.54C90.3069 29.3327 89.3776 30.016 88.2022 30.59C87.0542 31.1367 85.8379 31.41 84.5532 31.41C82.6672 31.41 80.9589 30.9317 79.4282 29.975C77.8976 28.991 76.6812 27.638 75.7792 25.916C74.9046 24.194 74.4672 22.2397 74.4672 20.053C74.4672 17.8663 74.9046 15.912 75.7792 14.19C76.6539 12.4407 77.8429 11.0877 79.3462 10.131C80.8769 9.147 82.5579 8.655 84.3892 8.655C85.7012 8.655 86.9312 8.901 88.0792 9.393C89.2272 9.85767 90.1976 10.459 90.9902 11.197V3.161C90.9902 2.45033 91.2226 1.86266 91.6872 1.398C92.1519 0.905999 92.7396 0.66 93.4502 0.66ZM85.1682 26.9C86.9449 26.9 88.3936 26.2577 89.5142 24.973C90.6349 23.661 91.1952 22.021 91.1952 20.053C91.1952 18.085 90.6349 16.445 89.5142 15.133C88.3936 13.821 86.9449 13.165 85.1682 13.165C83.4189 13.165 81.9839 13.821 80.8632 15.133C79.7426 16.445 79.1822 18.085 79.1822 20.053C79.1822 22.021 79.7289 23.661 80.8222 24.973C81.9429 26.2577 83.3916 26.9 85.1682 26.9ZM117.519 9.065C118.23 9.065 118.817 9.311 119.282 9.803C119.747 10.2677 119.979 10.8553 119.979 11.566V28.991C119.979 32.5443 119.022 35.1273 117.109 36.74C115.196 38.38 112.64 39.2 109.442 39.2C108.513 39.2 107.556 39.118 106.572 38.954C105.615 38.8173 104.836 38.626 104.235 38.38C102.896 37.806 102.226 37.0133 102.226 36.002C102.226 35.8107 102.267 35.592 102.349 35.346C102.513 34.7447 102.786 34.28 103.169 33.952C103.579 33.6513 104.016 33.501 104.481 33.501C104.754 33.501 105.014 33.542 105.26 33.624C105.451 33.706 105.779 33.8427 106.244 34.034C106.736 34.2253 107.242 34.3757 107.761 34.485C108.308 34.6217 108.868 34.69 109.442 34.69C111.383 34.69 112.804 34.2663 113.706 33.419C114.635 32.599 115.1 31.1777 115.1 29.155V28.745C113.679 30.5217 111.465 31.41 108.458 31.41C107.037 31.41 105.779 31.082 104.686 30.426C103.593 29.7427 102.745 28.8133 102.144 27.638C101.543 26.4353 101.242 25.0687 101.242 23.538V11.566C101.242 10.8553 101.474 10.2677 101.939 9.803C102.404 9.311 102.991 9.065 103.702 9.065C104.413 9.065 105 9.311 105.465 9.803C105.93 10.2677 106.162 10.8553 106.162 11.566V22.062C106.162 23.784 106.531 25.0277 107.269 25.793C108.034 26.531 109.141 26.9 110.59 26.9C112.011 26.9 113.105 26.49 113.87 25.67C114.663 24.8227 115.059 23.62 115.059 22.062V11.566C115.059 10.8553 115.291 10.2677 115.756 9.803C116.221 9.311 116.808 9.065 117.519 9.065ZM150.562 9.065C151.218 9.065 151.764 9.311 152.202 9.803C152.666 10.2677 152.899 10.869 152.899 11.607C152.899 11.853 152.844 12.1673 152.735 12.55L146.462 29.442C146.298 29.934 145.997 30.3303 145.56 30.631C145.15 30.9043 144.699 31.041 144.207 31.041L143.879 31C142.949 30.9453 142.252 30.426 141.788 29.442L138.303 19.356L134.982 29.442C134.517 30.426 133.82 30.9453 132.891 31L132.563 31.041C132.071 31.041 131.606 30.9043 131.169 30.631C130.759 30.3303 130.472 29.934 130.308 29.442L124.035 12.55C123.925 12.2493 123.871 11.935 123.871 11.607C123.871 10.9237 124.089 10.336 124.527 9.844C124.991 9.32467 125.593 9.065 126.331 9.065C126.877 9.065 127.342 9.20167 127.725 9.475C128.135 9.721 128.422 10.1037 128.586 10.623L133.014 22.636L136.253 13.862C136.69 12.8507 137.442 12.345 138.508 12.345C139.082 12.345 139.519 12.468 139.82 12.714C140.148 12.96 140.421 13.3427 140.64 13.862L143.797 22.431L148.184 10.623C148.348 10.1037 148.635 9.721 149.045 9.475C149.455 9.20167 149.96 9.065 150.562 9.065ZM176.456 19.52C176.429 20.176 176.169 20.709 175.677 21.119C175.185 21.529 174.611 21.734 173.955 21.734H160.425C160.753 23.3467 161.505 24.6177 162.68 25.547C163.856 26.449 165.181 26.9 166.657 26.9C167.778 26.9 168.653 26.8043 169.281 26.613C169.91 26.3943 170.402 26.1757 170.757 25.957C171.14 25.711 171.4 25.547 171.536 25.465C172.028 25.219 172.493 25.096 172.93 25.096C173.504 25.096 173.996 25.301 174.406 25.711C174.816 26.121 175.021 26.5993 175.021 27.146C175.021 27.884 174.639 28.5537 173.873 29.155C173.108 29.7837 172.083 30.3167 170.798 30.754C169.514 31.1913 168.215 31.41 166.903 31.41C164.607 31.41 162.598 30.9317 160.876 29.975C159.182 29.0183 157.87 27.7063 156.94 26.039C156.011 24.3443 155.546 22.4447 155.546 20.34C155.546 17.9893 156.038 15.9257 157.022 14.149C158.006 12.3723 159.305 11.0193 160.917 10.09C162.53 9.13333 164.252 8.655 166.083 8.655C167.887 8.655 169.582 9.147 171.167 10.131C172.78 11.115 174.065 12.4407 175.021 14.108C175.978 15.7753 176.456 17.5793 176.456 19.52ZM166.083 13.165C162.913 13.165 161.04 14.6547 160.466 17.634H171.208V17.347C171.099 16.199 170.539 15.215 169.527 14.395C168.516 13.575 167.368 13.165 166.083 13.165ZM191.917 8.655C193.803 8.655 195.511 9.147 197.042 10.131C198.572 11.0877 199.775 12.427 200.65 14.149C201.552 15.871 202.003 17.8253 202.003 20.012C202.003 22.1987 201.565 24.1667 200.691 25.916C199.816 27.638 198.613 28.991 197.083 29.975C195.579 30.9317 193.912 31.41 192.081 31.41C190.769 31.41 189.525 31.1503 188.35 30.631C187.202 30.0843 186.245 29.4283 185.48 28.663V28.909C185.48 29.6197 185.247 30.221 184.783 30.713C184.318 31.1777 183.73 31.41 183.02 31.41C182.309 31.41 181.721 31.1777 181.257 30.713C180.792 30.2483 180.56 29.647 180.56 28.909V3.161C180.56 2.45033 180.792 1.86266 181.257 1.398C181.721 0.905999 182.309 0.66 183.02 0.66C183.73 0.66 184.318 0.905999 184.783 1.398C185.247 1.86266 185.48 2.45033 185.48 3.161V11.73C186.136 10.91 187.051 10.1993 188.227 9.598C189.402 8.96933 190.632 8.655 191.917 8.655ZM191.302 26.9C193.051 26.9 194.486 26.244 195.607 24.932C196.727 23.62 197.288 21.98 197.288 20.012C197.288 18.044 196.727 16.4177 195.607 15.133C194.513 13.821 193.078 13.165 191.302 13.165C189.525 13.165 188.076 13.821 186.956 15.133C185.835 16.4177 185.275 18.044 185.275 20.012C185.275 21.98 185.835 23.62 186.956 24.932C188.076 26.244 189.525 26.9 191.302 26.9ZM208.277 30.959C207.485 30.959 206.87 30.754 206.432 30.344C206.022 29.9067 205.817 29.2917 205.817 28.499V27.802C205.817 27.0093 206.022 26.408 206.432 25.998C206.87 25.5607 207.485 25.342 208.277 25.342H208.81C209.603 25.342 210.204 25.5607 210.614 25.998C211.052 26.408 211.27 27.0093 211.27 27.802V28.499C211.27 29.2917 211.052 29.9067 210.614 30.344C210.204 30.754 209.603 30.959 208.81 30.959H208.277Z" fill="url(#paint0_linear)"/>
<defs>
<linearGradient id="paint0_linear" x1="-0.999999" y1="-35.5" x2="204.366" y2="55.1643" gradientUnits="userSpaceOnUse">
<stop stop-color="#7028E4"/>
<stop offset="0.540114" stop-color="#D253E6"/>
<stop offset="1" stop-color="#5D8FFF"/>
</linearGradient>
</defs>
</svg>
