<svg width="33" height="34" viewBox="0 0 33 34" fill="none" xmlns="http://www.w3.org/2000/svg">
<g clip-path="url(#clip0)">
<path d="M16.5055 8.27051C11.8264 8.27051 8.03824 12.1777 8.03824 16.9943C8.03824 21.8153 11.8305 25.7182 16.5055 25.7182C21.1846 25.7182 24.9727 21.811 24.9727 16.9943C24.9727 12.1734 21.1805 8.27051 16.5055 8.27051ZM16.5055 22.6568C13.4681 22.6568 11.0096 20.1223 11.0096 16.9943C11.0096 13.8663 13.4695 11.3319 16.5055 11.3319C19.5415 11.3319 22.0014 13.8663 22.0014 16.9943C22.0027 20.1223 19.5429 22.6568 16.5055 22.6568Z" fill="#F8F9FA"/>
<path d="M23.3031 0.108751C20.2671 -0.0371658 12.7472 -0.0300824 9.70843 0.108751C7.03818 0.237668 4.6828 0.902084 2.78392 2.8585C-0.389576 6.12817 0.0160495 10.534 0.0160495 16.9954C0.0160495 23.6084 -0.34145 27.9123 2.78392 31.1323C5.9698 34.4133 10.3079 33.9841 16.5051 33.9841C22.8631 33.9841 25.0576 33.9883 27.3057 33.0916C30.3623 31.869 32.6696 29.0541 32.8951 23.998C33.0381 20.8686 33.0298 13.1223 32.8951 9.99142C32.6228 4.023 29.5139 0.403418 23.3031 0.108751ZM28.1087 28.9691C26.0283 31.1125 23.1422 30.9213 16.4652 30.9213C9.59018 30.9213 6.8333 31.0261 4.82167 28.9478C2.5048 26.5721 2.92417 22.757 2.92417 16.9728C2.92417 9.14567 2.14455 3.50875 9.76893 3.10642C11.5207 3.04267 12.0363 3.02142 16.4459 3.02142L16.5078 3.06392C23.8352 3.06392 29.5841 2.27342 29.9292 10.1274C30.0076 11.9195 30.0254 12.4578 30.0254 16.994C30.0241 23.9952 30.1533 26.8526 28.1087 28.9691Z" fill="#F8F9FA"/>
<path d="M25.3082 9.96486C26.401 9.96486 27.2869 9.05216 27.2869 7.92628C27.2869 6.8004 26.401 5.8877 25.3082 5.8877C24.2155 5.8877 23.3296 6.8004 23.3296 7.92628C23.3296 9.05216 24.2155 9.96486 25.3082 9.96486Z" fill="#F8F9FA"/>
</g>
<defs>
<clipPath id="clip0">
<rect width="33" height="34" fill="white"/>
</clipPath>
</defs>
</svg>
