<svg width="33" height="34" viewBox="0 0 33 34" fill="none" xmlns="http://www.w3.org/2000/svg">
<g clip-path="url(#clip0)">
<path d="M24.0721 20.2683L24.0598 20.3746C21.0361 18.8219 20.7199 18.6151 20.3294 19.2186C20.0585 19.6365 19.2693 20.5842 19.0314 20.8647C18.7908 21.141 18.5515 21.1622 18.1431 20.971C17.7306 20.7585 16.4065 20.3122 14.839 18.8672C13.618 17.741 12.7985 16.3597 12.5565 15.9347C12.1536 15.2179 12.9965 15.1159 13.7638 13.6199C13.9013 13.3224 13.8311 13.0887 13.7294 12.8776C13.6263 12.6651 12.8054 10.5826 12.4616 9.75241C12.1316 8.92508 11.792 9.02991 11.5376 9.02991C10.7456 8.95908 10.1668 8.97041 9.65663 9.51724C7.43738 12.0304 7.99701 14.6229 9.89588 17.3797C13.6276 22.4117 15.6159 23.3382 19.2514 24.6246C20.2331 24.9462 21.1283 24.9008 21.8364 24.796C22.6256 24.6671 24.266 23.7746 24.6084 22.7758C24.959 21.7771 24.959 20.9483 24.8559 20.7571C24.7541 20.5658 24.4846 20.4596 24.0721 20.2683Z" fill="#F8F9FA"/>
<path d="M28.215 4.88474C17.6426 -5.64534 0.14575 1.99191 0.138875 16.8471C0.138875 19.8164 0.89375 22.7121 2.332 25.2692L0 33.9987L8.71062 31.6583C19.58 37.7075 32.9945 29.675 33 16.8556C33 12.3562 31.295 8.12183 28.1944 4.93999L28.215 4.88474ZM30.2528 16.8088C30.2445 27.6222 18.7234 34.3755 9.61125 28.8562L9.11625 28.553L3.96 29.9342L5.34188 24.7705L5.01325 24.2392C-0.65725 14.9388 5.8575 2.78383 16.599 2.78383C20.2482 2.78383 23.6734 4.25008 26.2529 6.90633C28.831 9.53991 30.2528 13.0688 30.2528 16.8088Z" fill="#F8F9FA"/>
</g>
<defs>
<clipPath id="clip0">
<rect width="33" height="34" fill="white"/>
</clipPath>
</defs>
</svg>
