<svg width="41" height="41" viewBox="0 0 41 41" fill="none" xmlns="http://www.w3.org/2000/svg">
<g clip-path="url(#clip0)">
<path d="M40.0929 10.1288L40.1441 10.4636C39.6487 8.70577 38.3111 7.34936 36.6113 6.85565L36.5754 6.8471C33.3791 5.97927 20.5171 5.97927 20.5171 5.97927C20.5171 5.97927 7.6875 5.96219 4.45875 6.8471C2.7265 7.34936 1.38717 8.70577 0.900291 10.4278L0.891749 10.4636C-0.302376 16.7008 -0.310918 24.1952 0.944707 30.8731L0.891749 30.5349C1.38717 32.2927 2.72479 33.6492 4.42458 34.1429L4.46046 34.1514C7.65333 35.0209 20.5188 35.0209 20.5188 35.0209C20.5188 35.0209 33.3467 35.0209 36.5771 34.1514C38.3111 33.6491 39.6504 32.2927 40.1373 30.5707L40.1458 30.5349C40.6891 27.6341 41 24.296 41 20.8862C41 20.7615 41 20.6351 40.9983 20.5086C41 20.3925 41 20.2541 41 20.1157C41 16.7042 40.6891 13.3661 40.0929 10.1288ZM16.4137 26.7372V14.2784L27.1181 20.5172L16.4137 26.7372Z" fill="#F8F9FA"/>
</g>
<defs>
<clipPath id="clip0">
<rect width="41" height="41" fill="white"/>
</clipPath>
</defs>
</svg>
