<svg width="2289" height="1849" viewBox="0 0 2289 1849" fill="none" xmlns="http://www.w3.org/2000/svg">
<g opacity="0.1">
<path d="M246.383 1499.5C272.643 1448.96 329.383 1142.06 1063.38 849.93C1797.37 557.802 1928.77 361.75 1894.82 126.359" stroke="#F8F9FA" stroke-width="1.11256" stroke-miterlimit="10"/>
<path d="M242.484 1492.35C267.482 1444.19 334.959 1144.26 1064.8 857.964C1794.64 571.67 1916.14 348.367 1883.88 124.039" stroke="#F8F9FA" stroke-width="1.11256" stroke-miterlimit="10"/>
<path d="M238.654 1485.17C262.399 1439.41 340.59 1146.65 1066.71 866.502C1792.83 586.35 1904.47 335.921 1873.82 122.807" stroke="#F8F9FA" stroke-width="1.11256" stroke-miterlimit="10"/>
<path d="M234.82 1477.98C257.32 1434.63 346.215 1149.06 1068.61 875.033C1791.01 601.008 1892.8 323.469 1863.76 121.576" stroke="#F8F9FA" stroke-width="1.11256" stroke-miterlimit="10"/>
<path d="M230.984 1470.78C252.23 1429.84 351.839 1151.44 1070.51 883.554C1789.18 615.664 1881.12 311.006 1853.68 120.328" stroke="#F8F9FA" stroke-width="1.11256" stroke-miterlimit="10"/>
<path d="M227.147 1463.6C247.147 1425.07 357.469 1153.85 1072.4 892.104C1787.34 630.354 1869.43 298.573 1843.61 119.117" stroke="#F8F9FA" stroke-width="1.11256" stroke-miterlimit="10"/>
<path d="M223.311 1456.41C242.058 1420.29 363.099 1156.25 1074.31 900.632C1785.51 645.016 1857.76 286.117 1833.55 117.875" stroke="#F8F9FA" stroke-width="1.11256" stroke-miterlimit="10"/>
<path d="M219.476 1449.22C236.978 1415.5 368.725 1158.64 1076.2 909.155C1783.68 659.674 1846.08 273.657 1823.48 116.637" stroke="#F8F9FA" stroke-width="1.11256" stroke-miterlimit="10"/>
<path d="M215.64 1442.02C231.888 1410.72 374.348 1161.04 1078.11 917.683C1781.86 674.33 1834.39 261.208 1813.42 115.39" stroke="#F8F9FA" stroke-width="1.11256" stroke-miterlimit="10"/>
<path d="M211.811 1434.84C226.813 1405.94 379.98 1163.43 1080.01 926.227C1780.04 689.022 1822.72 248.769 1803.36 114.172" stroke="#F8F9FA" stroke-width="1.11256" stroke-miterlimit="10"/>
<path d="M207.975 1427.64C221.724 1401.15 385.611 1165.83 1081.9 934.749C1778.2 703.671 1811.03 236.307 1793.29 112.925" stroke="#F8F9FA" stroke-width="1.11256" stroke-miterlimit="10"/>
<path d="M204.132 1420.46C216.627 1396.38 391.22 1168.23 1083.8 943.284C1776.38 718.341 1799.35 223.859 1783.22 111.699" stroke="#F8F9FA" stroke-width="1.11256" stroke-miterlimit="10"/>
<path d="M200.302 1413.27C211.552 1391.6 396.857 1170.63 1085.71 951.821C1774.56 733.012 1787.68 211.412 1773.16 110.466" stroke="#F8F9FA" stroke-width="1.11256" stroke-miterlimit="10"/>
<path d="M196.466 1406.08C206.462 1386.81 402.482 1173.02 1087.6 960.348C1772.71 747.68 1776 198.963 1763.09 109.232" stroke="#F8F9FA" stroke-width="1.11256" stroke-miterlimit="10"/>
<path d="M192.631 1398.88C201.382 1382.02 408.113 1175.41 1089.5 968.878C1770.89 762.344 1764.32 186.517 1753.02 107.993" stroke="#F8F9FA" stroke-width="1.11256" stroke-miterlimit="10"/>
<path d="M188.801 1391.7C196.298 1377.25 413.736 1177.81 1091.41 977.414C1769.08 777.015 1752.65 174.068 1742.97 106.766" stroke="#F8F9FA" stroke-width="1.11256" stroke-miterlimit="10"/>
<path d="M184.966 1384.5C191.218 1372.46 419.368 1180.21 1093.31 985.945C1767.26 791.68 1740.96 161.615 1732.89 105.534" stroke="#F8F9FA" stroke-width="1.11256" stroke-miterlimit="10"/>
<path d="M181.123 1377.32C186.121 1367.69 424.991 1182.61 1095.2 994.48C1765.4 806.348 1729.29 149.162 1722.83 104.296" stroke="#F8F9FA" stroke-width="1.11256" stroke-miterlimit="10"/>
<path d="M177.288 1370.12C181.041 1362.9 430.609 1185 1097.1 1003.01C1763.59 821.012 1717.6 136.713 1712.76 103.069" stroke="#F8F9FA" stroke-width="1.11256" stroke-miterlimit="10"/>
<path d="M173.457 1362.94C175.956 1358.12 436.245 1187.41 1099.01 1011.54C1761.77 835.683 1705.93 124.258 1702.69 101.829" stroke="#F8F9FA" stroke-width="1.11256" stroke-miterlimit="10"/>
<path d="M169.624 1355.75C170.877 1353.33 441.872 1189.8 1100.91 1020.07C1759.94 850.341 1694.25 111.812 1692.64 100.598" stroke="#F8F9FA" stroke-width="1.11256" stroke-miterlimit="10"/>
<path d="M165.787 1348.55C165.787 1348.55 447.502 1192.19 1102.8 1028.6C1758.1 865.016 1682.56 99.3637 1682.56 99.3637" stroke="#F8F9FA" stroke-width="1.11256" stroke-miterlimit="10"/>
<path d="M177.695 1358.47C177.891 1356.77 450.602 1177.13 1095.8 1018.12C1741 859.122 1690.05 137.024 1700.49 123.528" stroke="#F8F9FA" stroke-width="1.11256" stroke-miterlimit="10"/>
<path d="M189.609 1368.41C190.001 1365 453.722 1162.07 1088.81 1007.66C1723.9 853.251 1697.55 174.681 1718.41 147.695" stroke="#F8F9FA" stroke-width="1.11256" stroke-miterlimit="10"/>
<path d="M201.519 1378.33C202.107 1373.22 456.838 1147.01 1081.81 997.191C1706.77 847.37 1705.02 212.329 1736.34 171.861" stroke="#F8F9FA" stroke-width="1.11256" stroke-miterlimit="10"/>
<path d="M213.425 1388.25C214.201 1381.45 459.944 1131.94 1074.81 986.718C1689.67 841.496 1712.5 249.995 1754.26 196.031" stroke="#F8F9FA" stroke-width="1.11256" stroke-miterlimit="10"/>
<path d="M225.334 1398.18C226.306 1389.67 463.059 1116.88 1067.81 976.242C1672.56 835.604 1719.99 287.652 1772.18 220.192" stroke="#F8F9FA" stroke-width="1.11256" stroke-miterlimit="10"/>
<path d="M237.251 1408.09C238.419 1397.89 466.168 1101.81 1060.82 965.771C1655.47 829.732 1727.48 325.307 1790.11 244.356" stroke="#F8F9FA" stroke-width="1.11256" stroke-miterlimit="10"/>
<path d="M249.158 1418.02C250.521 1406.11 469.28 1086.75 1053.82 955.298C1638.36 823.851 1734.96 362.96 1808.03 268.521" stroke="#F8F9FA" stroke-width="1.11256" stroke-miterlimit="10"/>
<path d="M261.067 1427.94C262.626 1414.33 472.389 1071.68 1046.82 944.821C1621.25 817.965 1742.45 400.615 1825.95 292.686" stroke="#F8F9FA" stroke-width="1.11256" stroke-miterlimit="10"/>
<path d="M272.98 1437.87C274.735 1422.56 475.508 1056.62 1039.83 934.35C1604.14 812.079 1749.93 438.277 1843.87 316.851" stroke="#F8F9FA" stroke-width="1.11256" stroke-miterlimit="10"/>
<path d="M284.889 1447.79C286.84 1430.78 478.623 1041.56 1032.83 923.886C1587.03 806.212 1757.42 475.938 1861.79 341.023" stroke="#F8F9FA" stroke-width="1.11256" stroke-miterlimit="10"/>
<path d="M296.798 1457.72C298.945 1439 481.732 1026.49 1025.83 913.409C1569.92 800.326 1764.9 513.586 1879.71 365.183" stroke="#F8F9FA" stroke-width="1.11256" stroke-miterlimit="10"/>
<path d="M308.714 1467.63C311.049 1447.22 484.845 1011.43 1018.84 902.931C1552.83 794.434 1772.4 551.241 1897.65 389.349" stroke="#F8F9FA" stroke-width="1.11256" stroke-miterlimit="10"/>
<path d="M320.623 1477.56C323.153 1455.44 487.954 996.359 1011.83 892.459C1535.71 788.56 1779.87 588.902 1915.57 413.513" stroke="#F8F9FA" stroke-width="1.11256" stroke-miterlimit="10"/>
<path d="M332.532 1487.48C335.259 1463.66 491.069 981.299 1004.84 881.991C1518.61 782.683 1787.37 626.56 1933.49 437.682" stroke="#F8F9FA" stroke-width="1.11256" stroke-miterlimit="10"/>
<path d="M344.439 1497.4C347.361 1471.88 494.182 966.234 997.837 871.51C1501.49 776.786 1794.84 664.205 1951.41 461.837" stroke="#F8F9FA" stroke-width="1.11256" stroke-miterlimit="10"/>
<path d="M356.348 1507.33C359.467 1480.1 497.291 951.165 990.836 861.046C1484.38 770.927 1802.32 701.873 1969.33 486.009" stroke="#F8F9FA" stroke-width="1.11256" stroke-miterlimit="10"/>
<path d="M368.262 1517.26C371.577 1488.33 500.403 936.118 983.842 850.577C1467.28 765.036 1809.81 739.536 1987.26 510.176" stroke="#F8F9FA" stroke-width="1.11256" stroke-miterlimit="10"/>
<path d="M380.178 1527.18C383.689 1496.55 503.519 921.041 976.855 840.099C1450.19 759.157 1817.32 777.185 2005.18 534.341" stroke="#F8F9FA" stroke-width="1.11256" stroke-miterlimit="10"/>
<path d="M392.087 1537.1C395.785 1504.78 506.633 905.979 969.848 829.627C1433.06 753.276 1824.79 814.839 2023.1 558.506" stroke="#F8F9FA" stroke-width="1.11256" stroke-miterlimit="10"/>
<path d="M403.995 1547.02C407.889 1513 509.747 890.917 962.854 819.157C1415.96 747.397 1832.27 852.501 2041.02 582.672" stroke="#F8F9FA" stroke-width="1.11256" stroke-miterlimit="10"/>
<path d="M415.903 1556.95C419.992 1521.22 512.854 875.847 955.853 808.678C1398.85 741.51 1839.76 890.155 2058.95 606.837" stroke="#F8F9FA" stroke-width="1.11256" stroke-miterlimit="10"/>
</g>
</svg>
